<?xml version="1.0" encoding="utf-8"?>
<!-- Generator: Adobe Illustrator 25.0.0, SVG Export Plug-In . SVG Version: 6.00 Build 0)  -->
<svg xmlns="http://www.w3.org/2000/svg" xmlns:xlink="http://www.w3.org/1999/xlink" version="1.1" id="Layer_1" x="0px" y="0px" viewBox="0 0 500 500" style="enable-background:new 0 0 500 500;" xml:space="preserve">
<style type="text/css">
	.st0{fill:#ED6423;}
	.st1{fill:#AE272E;}
	.st2{fill:#FFFFFF;}
	.st3{fill:#0A4B7E;}
	.st4{fill-rule:evenodd;clip-rule:evenodd;fill:#192853;}
	.st5{fill-rule:evenodd;clip-rule:evenodd;fill:#548BC8;}
	.st6{clip-path:url(#SVGID_5_);}
	.st7{clip-path:url(#SVGID_6_);}
	.st8{fill:#7853A1;}
	.st9{fill-rule:evenodd;clip-rule:evenodd;fill:#023422;}
	.st10{fill:#023422;}
	.st11{fill:#103928;}
	.st12{clip-path:url(#SVGID_7_);fill:url(#SVGID_8_);}
	.st13{clip-path:url(#SVGID_9_);fill:url(#SVGID_10_);}
	.st14{fill:#4279BC;}
	.st15{fill:url(#Logo1_1_);}
	.st16{fill:url(#Logo2_2_);}
	.st17{fill:#182830;}
	.st18{fill:#00A68B;}
	.st19{fill:#1D1C1A;}
	.st20{fill:#FFFFFF;filter:url(#Adobe_OpacityMaskFilter);}
	.st21{mask:url(#mask0_34_3_1_);}
	.st22{fill:#5DBD79;}
	.st23{fill:#00BA39;}
	.st24{fill:#00BD36;}
	.st25{fill:#00BD37;}
	.st26{fill:#6BC62A;}
	.st27{fill:#6FC729;}
	.st28{fill:#7AC926;}
	.st29{fill:#74C828;}
	.st30{fill:#83CB23;}
	.st31{fill:#86CB22;}
	.st32{fill:#72C729;}
	.st33{fill:#41C032;}
	.st34{fill:#12BE37;}
	.st35{fill:#3BC032;}
	.st36{fill:#5EC42D;}
	.st37{fill:#8DCD1F;}
	.st38{fill:#10BD36;}
	.st39{fill:#41C131;}
	.st40{fill:#6FC72A;}
	.st41{fill:#FEFEFE;}
	.st42{fill:#01BD37;}
	.st43{fill:#02BD37;}
	.st44{fill:#11BD36;}
	.st45{fill:#18BF3A;}
	.st46{fill:#4CC230;}
	.st47{fill:#52C32F;}
	.st48{fill:#62C52C;}
	.st49{fill:#67C62A;}
	.st50{fill:#5AC42E;}
	.st51{fill:#48C130;}
	.st52{fill:#43C130;}
	.st53{fill:#7ECA24;}
	.st54{fill:#77C826;}
	.st55{fill:#89CC1F;}
	.st56{fill:#14BE36;}
	.st57{fill:#32C032;}
	.st58{fill:#37C032;}
	.st59{fill:#22BF34;}
	.st60{fill:#29BF34;}
	.st61{fill:#63C52D;}
	.st62{fill:#53C32F;}
	.st63{fill:#32C033;}
	.st64{fill:#42C131;}
	.st65{fill:#23BF35;}
	.st66{fill:#38C032;}
	.st67{fill:#16BF37;}
	.st68{fill:#2FBF34;}
	.st69{fill:#20C03E;}
	.st70{fill:#2FC139;}
	.st71{fill:#02BB3A;}
	.st72{fill:#33C033;}
	.st73{fill:#15BE36;}
	.st74{fill:#1EBF35;}
	.st75{fill:#3AC033;}
	.st76{fill:#33C032;}
	.st77{fill:#26BF35;}
	.st78{fill:#2FC037;}
	.st79{fill:#11BE37;}
	.st80{fill:#5FC52E;}
	.st81{fill:#61C636;}
	.st82{fill:#2BBBC9;}
	.st83{fill:#363636;}
	.st84{fill:#FCFCFC;}
	.st85{fill:#E31E26;}
	.st86{fill:#060709;}
	.st87{fill:#2B2132;}
	.st88{fill:#E21E26;}
	.st89{fill:#171816;}
	.st90{fill:#312E81;}
	.st91{fill:#312F81;}
	.st92{fill:#322E81;}
	.st93{fill:#312F82;}
	.st94{fill:#E21F26;}
	.st95{fill:#1F1F1D;}
	.st96{fill:#E12025;}
	.st97{fill:#20201E;}
	.st98{fill:#222220;}
	.st99{fill:#242422;}
	.st100{fill:#262725;}
	.st101{fill:#21211F;}
	.st102{fill:#242523;}
	.st103{fill:#181917;}
	.st104{fill:#222221;}
	.st105{fill-rule:evenodd;clip-rule:evenodd;fill:#D72927;}
	.st106{fill-rule:evenodd;clip-rule:evenodd;fill:#E1A8A0;}
	.st107{fill-rule:evenodd;clip-rule:evenodd;fill:#DFAFAC;}
	.st108{fill-rule:evenodd;clip-rule:evenodd;fill:#D72627;}
	.st109{fill-rule:evenodd;clip-rule:evenodd;fill:#C6C5C4;}
	.st110{fill-rule:evenodd;clip-rule:evenodd;fill:#7F1A18;}
	.st111{fill-rule:evenodd;clip-rule:evenodd;fill:#8B1C1C;}
	.st112{fill-rule:evenodd;clip-rule:evenodd;fill:#841B19;}
	.st113{fill-rule:evenodd;clip-rule:evenodd;fill:#8F1C1D;}
	.st114{fill-rule:evenodd;clip-rule:evenodd;fill:#951D1F;}
	.st115{fill-rule:evenodd;clip-rule:evenodd;fill:#9E1E21;}
	.st116{fill-rule:evenodd;clip-rule:evenodd;fill:#9A1E20;}
	.st117{fill-rule:evenodd;clip-rule:evenodd;fill:#A31E22;}
	.st118{fill-rule:evenodd;clip-rule:evenodd;fill:#A72023;}
	.st119{fill-rule:evenodd;clip-rule:evenodd;fill:#B12325;}
	.st120{fill-rule:evenodd;clip-rule:evenodd;fill:#AB2324;}
	.st121{fill-rule:evenodd;clip-rule:evenodd;fill:#B72325;}
	.st122{fill-rule:evenodd;clip-rule:evenodd;fill:#BD2426;}
	.st123{fill-rule:evenodd;clip-rule:evenodd;fill:#A41E22;}
	.st124{fill-rule:evenodd;clip-rule:evenodd;fill:#9B2320;}
	.st125{fill-rule:evenodd;clip-rule:evenodd;fill:#A82223;}
	.st126{fill-rule:evenodd;clip-rule:evenodd;fill:#9D9A98;}
	.st127{fill-rule:evenodd;clip-rule:evenodd;fill:#CD2627;}
	.st128{fill-rule:evenodd;clip-rule:evenodd;fill:#93211E;}
	.st129{fill-rule:evenodd;clip-rule:evenodd;fill:#84201B;}
	.st130{fill-rule:evenodd;clip-rule:evenodd;fill:#C52527;}
	.st131{fill-rule:evenodd;clip-rule:evenodd;fill:#8C201C;}
	.st132{fill-rule:evenodd;clip-rule:evenodd;fill:#B22625;}
	.st133{fill-rule:evenodd;clip-rule:evenodd;fill:#A22222;}
	.st134{fill-rule:evenodd;clip-rule:evenodd;fill:#BD2526;}
	.st135{fill-rule:evenodd;clip-rule:evenodd;fill:#7F211C;}
	.st136{fill-rule:evenodd;clip-rule:evenodd;fill:#CE2527;}
	.st137{fill-rule:evenodd;clip-rule:evenodd;fill:#C02726;}
	.st138{fill-rule:evenodd;clip-rule:evenodd;fill:#D63A37;}
	.st139{fill-rule:evenodd;clip-rule:evenodd;fill:#AF2625;}
	.st140{fill-rule:evenodd;clip-rule:evenodd;fill:#BA2B26;}
	.st141{fill-rule:evenodd;clip-rule:evenodd;fill:#CF332A;}
	.st142{fill-rule:evenodd;clip-rule:evenodd;fill:#D02E27;}
	.st143{fill-rule:evenodd;clip-rule:evenodd;fill:#DC2726;}
	.st144{fill-rule:evenodd;clip-rule:evenodd;fill:#A92123;}
	.st145{fill-rule:evenodd;clip-rule:evenodd;fill:#C72527;}
	.st146{fill-rule:evenodd;clip-rule:evenodd;fill:#E77295;}
	.st147{fill-rule:evenodd;clip-rule:evenodd;fill:#E97EA2;}
	.st148{fill-rule:evenodd;clip-rule:evenodd;fill:#E5607F;}
	.st149{fill-rule:evenodd;clip-rule:evenodd;fill:#E76C8D;}
	.st150{fill-rule:evenodd;clip-rule:evenodd;fill:#E24E64;}
	.st151{fill-rule:evenodd;clip-rule:evenodd;fill:#E14E64;}
	.st152{fill-rule:evenodd;clip-rule:evenodd;fill:#DE4151;}
	.st153{fill-rule:evenodd;clip-rule:evenodd;fill:#DE3942;}
	.st154{fill-rule:evenodd;clip-rule:evenodd;fill:#DB2F33;}
	.st155{fill-rule:evenodd;clip-rule:evenodd;fill:#D92727;}
	.st156{fill-rule:evenodd;clip-rule:evenodd;fill:#DA353E;}
	.st157{fill-rule:evenodd;clip-rule:evenodd;fill:#DE3F4D;}
	.st158{fill-rule:evenodd;clip-rule:evenodd;fill:#ED8EB2;}
	.st159{fill-rule:evenodd;clip-rule:evenodd;fill:#D22A2E;}
	.st160{fill-rule:evenodd;clip-rule:evenodd;fill:#E66886;}
	.st161{fill-rule:evenodd;clip-rule:evenodd;fill:#E0526B;}
	.st162{fill-rule:evenodd;clip-rule:evenodd;fill:#E45874;}
	.st163{fill-rule:evenodd;clip-rule:evenodd;fill:#E45977;}
	.st164{fill-rule:evenodd;clip-rule:evenodd;fill:#FFFFFF;}
	.st165{fill-rule:evenodd;clip-rule:evenodd;fill:#DA2427;}
	.st166{fill-rule:evenodd;clip-rule:evenodd;fill:#D02727;}
	.st167{fill-rule:evenodd;clip-rule:evenodd;fill:#D9203F;}
	.st168{fill-rule:evenodd;clip-rule:evenodd;fill:#D9212B;}
	.st169{fill-rule:evenodd;clip-rule:evenodd;fill:#D92627;}
	.st170{fill-rule:evenodd;clip-rule:evenodd;fill:#D92040;}
	.st171{fill-rule:evenodd;clip-rule:evenodd;fill:#D81F30;}
	.st172{fill-rule:evenodd;clip-rule:evenodd;fill:#D81E35;}
	.st173{fill-rule:evenodd;clip-rule:evenodd;fill:#DA203A;}
	.st174{fill-rule:evenodd;clip-rule:evenodd;fill:#D32727;}
	.st175{fill-rule:evenodd;clip-rule:evenodd;fill:#E44D72;}
	.st176{fill-rule:evenodd;clip-rule:evenodd;fill:#E87E9F;}
	.st177{fill-rule:evenodd;clip-rule:evenodd;fill:#E77194;}
	.st178{fill-rule:evenodd;clip-rule:evenodd;fill:#DE2C51;}
	.st179{fill-rule:evenodd;clip-rule:evenodd;fill:#EA83A4;}
	.st180{fill-rule:evenodd;clip-rule:evenodd;fill:#EDA4BF;}
	.st181{fill-rule:evenodd;clip-rule:evenodd;fill:#DF375A;}
	.st182{fill-rule:evenodd;clip-rule:evenodd;fill:#E14165;}
	.st183{fill-rule:evenodd;clip-rule:evenodd;fill:#ED9CB9;}
	.st184{fill-rule:evenodd;clip-rule:evenodd;fill:#DC2647;}
	.st185{fill-rule:evenodd;clip-rule:evenodd;fill:#E66B8D;}
	.st186{fill-rule:evenodd;clip-rule:evenodd;fill:#EFAFC8;}
	.st187{fill-rule:evenodd;clip-rule:evenodd;fill:#E77598;}
	.st188{fill-rule:evenodd;clip-rule:evenodd;fill:#E66083;}
	.st189{fill-rule:evenodd;clip-rule:evenodd;fill:#EE97B4;}
	.st190{fill-rule:evenodd;clip-rule:evenodd;fill:#F0B6CE;}
	.st191{fill-rule:evenodd;clip-rule:evenodd;fill:#ED92AF;}
	.st192{fill-rule:evenodd;clip-rule:evenodd;fill:#E5597F;}
	.st193{fill-rule:evenodd;clip-rule:evenodd;fill:#DE2F58;}
	.st194{fill-rule:evenodd;clip-rule:evenodd;fill:#DC274F;}
	.st195{fill-rule:evenodd;clip-rule:evenodd;fill:#F1BDD2;}
	.st196{fill-rule:evenodd;clip-rule:evenodd;fill:#F5C4D8;}
	.st197{fill-rule:evenodd;clip-rule:evenodd;fill:#EE92B2;}
	.st198{fill-rule:evenodd;clip-rule:evenodd;fill:#ED8BAA;}
	.st199{fill-rule:evenodd;clip-rule:evenodd;fill:#E44D76;}
	.st200{fill-rule:evenodd;clip-rule:evenodd;fill:#E65E86;}
	.st201{fill-rule:evenodd;clip-rule:evenodd;fill:#E66D91;}
	.st202{fill-rule:evenodd;clip-rule:evenodd;fill:#E3567F;}
	.st203{fill-rule:evenodd;clip-rule:evenodd;fill:#E03F68;}
	.st204{fill-rule:evenodd;clip-rule:evenodd;fill:#E13A62;}
	.st205{fill-rule:evenodd;clip-rule:evenodd;fill:#E3537A;}
	.st206{fill-rule:evenodd;clip-rule:evenodd;fill:#E7668C;}
	.st207{fill-rule:evenodd;clip-rule:evenodd;fill:#E34771;}
	.st208{fill-rule:evenodd;clip-rule:evenodd;fill:#2E368E;}
	.st209{fill-rule:evenodd;clip-rule:evenodd;fill:#6F589D;}
	.st210{fill-rule:evenodd;clip-rule:evenodd;fill:#731915;}
	.st211{fill-rule:evenodd;clip-rule:evenodd;fill:#9D1E21;}
	.st212{fill-rule:evenodd;clip-rule:evenodd;fill:#681916;}
	.st213{fill-rule:evenodd;clip-rule:evenodd;fill:#BC2426;}
	.st214{fill-rule:evenodd;clip-rule:evenodd;fill:#6C1815;}
	.st215{fill-rule:evenodd;clip-rule:evenodd;fill:#8C1B1C;}
	.st216{fill-rule:evenodd;clip-rule:evenodd;fill:#7A1A18;}
	.st217{fill-rule:evenodd;clip-rule:evenodd;fill:#951E1F;}
	.st218{fill-rule:evenodd;clip-rule:evenodd;fill:#991F20;}
	.st219{fill-rule:evenodd;clip-rule:evenodd;fill:#AC2424;}
	.st220{fill-rule:evenodd;clip-rule:evenodd;fill:#941E1E;}
	.st221{fill-rule:evenodd;clip-rule:evenodd;fill:#AF2C25;}
	.st222{fill-rule:evenodd;clip-rule:evenodd;fill:#751915;}
	.st223{fill-rule:evenodd;clip-rule:evenodd;fill:#631816;}
	.st224{fill-rule:evenodd;clip-rule:evenodd;fill:#6B1915;}
	.st225{fill-rule:evenodd;clip-rule:evenodd;fill:#841C1A;}
	.st226{fill-rule:evenodd;clip-rule:evenodd;fill:#B92426;}
	.st227{fill-rule:evenodd;clip-rule:evenodd;fill:#BA262A;}
	.st228{fill-rule:evenodd;clip-rule:evenodd;fill:#B93027;}
	.st229{fill-rule:evenodd;clip-rule:evenodd;fill:#C52327;}
	.st230{fill-rule:evenodd;clip-rule:evenodd;fill:#C92628;}
	.st231{fill-rule:evenodd;clip-rule:evenodd;fill:#C4322B;}
	.st232{fill-rule:evenodd;clip-rule:evenodd;fill:#E47183;}
	.st233{fill-rule:evenodd;clip-rule:evenodd;fill:#E87E98;}
	.st234{fill-rule:evenodd;clip-rule:evenodd;fill:#EA84A3;}
	.st235{fill-rule:evenodd;clip-rule:evenodd;fill:#EE9CB8;}
	.st236{fill-rule:evenodd;clip-rule:evenodd;fill:#E36874;}
	.st237{fill-rule:evenodd;clip-rule:evenodd;fill:#E46976;}
	.st238{fill-rule:evenodd;clip-rule:evenodd;fill:#DB4F49;}
	.st239{fill-rule:evenodd;clip-rule:evenodd;fill:#F0B6CD;}
	.st240{fill-rule:evenodd;clip-rule:evenodd;fill:#E36166;}
	.st241{fill-rule:evenodd;clip-rule:evenodd;fill:#F4CCDE;}
	.st242{fill-rule:evenodd;clip-rule:evenodd;fill:#DF5956;}
	.st243{fill-rule:evenodd;clip-rule:evenodd;fill:#E05C58;}
	.st244{fill-rule:evenodd;clip-rule:evenodd;fill:#F4E0E9;}
	.st245{fill-rule:evenodd;clip-rule:evenodd;fill:#E26169;}
	.st246{fill-rule:evenodd;clip-rule:evenodd;fill:#C3362D;}
	.st247{fill-rule:evenodd;clip-rule:evenodd;fill:#DB4C47;}
	.st248{fill-rule:evenodd;clip-rule:evenodd;fill:#CF3D35;}
	.st249{fill-rule:evenodd;clip-rule:evenodd;fill:#D5423E;}
	.st250{fill-rule:evenodd;clip-rule:evenodd;fill:#CD372F;}
	.st251{fill-rule:evenodd;clip-rule:evenodd;fill:#D5413A;}
	.st252{fill-rule:evenodd;clip-rule:evenodd;fill:#EA84A9;}
	.st253{fill-rule:evenodd;clip-rule:evenodd;fill:#E25977;}
	.st254{fill-rule:evenodd;clip-rule:evenodd;fill:#E66684;}
	.st255{fill-rule:evenodd;clip-rule:evenodd;fill:#D64457;}
	.st256{fill-rule:evenodd;clip-rule:evenodd;fill:#E1475A;}
	.st257{fill-rule:evenodd;clip-rule:evenodd;fill:#D73D4A;}
	.st258{fill-rule:evenodd;clip-rule:evenodd;fill:#CA3742;}
	.st259{fill-rule:evenodd;clip-rule:evenodd;fill:#CC2F36;}
	.st260{fill-rule:evenodd;clip-rule:evenodd;fill:#C62C30;}
	.st261{fill-rule:evenodd;clip-rule:evenodd;fill:#D13F4F;}
	.st262{fill-rule:evenodd;clip-rule:evenodd;fill:#EE9DBD;}
	.st263{fill-rule:evenodd;clip-rule:evenodd;fill:#B02325;}
	.st264{fill-rule:evenodd;clip-rule:evenodd;fill:#AA2323;}
	.st265{fill-rule:evenodd;clip-rule:evenodd;fill:#CD2527;}
	.st266{fill-rule:evenodd;clip-rule:evenodd;fill:#BC2326;}
	.st267{fill-rule:evenodd;clip-rule:evenodd;fill:#B62426;}
	.st268{fill-rule:evenodd;clip-rule:evenodd;fill:#D9212C;}
	.st269{fill-rule:evenodd;clip-rule:evenodd;fill:#CB2527;}
	.st270{fill-rule:evenodd;clip-rule:evenodd;fill:#D8203A;}
	.st271{fill-rule:evenodd;clip-rule:evenodd;fill:#D02627;}
	.st272{fill-rule:evenodd;clip-rule:evenodd;fill:#D52727;}
	.st273{fill-rule:evenodd;clip-rule:evenodd;fill:#DA2627;}
	.st274{fill-rule:evenodd;clip-rule:evenodd;fill:#DA2032;}
	.st275{fill-rule:evenodd;clip-rule:evenodd;fill:#DB2047;}
	.st276{fill-rule:evenodd;clip-rule:evenodd;fill:#E35579;}
	.st277{fill-rule:evenodd;clip-rule:evenodd;fill:#EEAAC3;}
	.st278{fill-rule:evenodd;clip-rule:evenodd;fill:#E03D60;}
	.st279{fill-rule:evenodd;clip-rule:evenodd;fill:#E76588;}
	.st280{fill-rule:evenodd;clip-rule:evenodd;fill:#B8352D;}
	.st281{fill-rule:evenodd;clip-rule:evenodd;fill:#C02D35;}
	.st282{fill-rule:evenodd;clip-rule:evenodd;fill:#C42D34;}
	.st283{fill-rule:evenodd;clip-rule:evenodd;fill:#BE3E37;}
	.st284{fill-rule:evenodd;clip-rule:evenodd;fill:#C5423A;}
	.st285{fill-rule:evenodd;clip-rule:evenodd;fill:#DF646E;}
	.st286{fill-rule:evenodd;clip-rule:evenodd;fill:#E7778F;}
	.st287{fill-rule:evenodd;clip-rule:evenodd;fill:#D85E61;}
	.st288{fill-rule:evenodd;clip-rule:evenodd;fill:#CB4B45;}
	.st289{fill-rule:evenodd;clip-rule:evenodd;fill:#D0534D;}
	.st290{fill-rule:evenodd;clip-rule:evenodd;fill:#DA564F;}
	.st291{fill-rule:evenodd;clip-rule:evenodd;fill:#F7F0F5;}
	.st292{fill-rule:evenodd;clip-rule:evenodd;fill:#EFB0CC;}
	.st293{fill-rule:evenodd;clip-rule:evenodd;fill:#F0BCD5;}
	.st294{fill-rule:evenodd;clip-rule:evenodd;fill:#F4CDE1;}
	.st295{fill-rule:evenodd;clip-rule:evenodd;fill:#F2D8E5;}
	.st296{fill-rule:evenodd;clip-rule:evenodd;fill:#F5E8EE;}
</style>
<g>
	<path class="st18" d="M124.8,240.5c0-6.7-2.4-12.4-7.2-17c-4.1-4-9.1-6.2-14.8-6.6c-0.9,0-0.9,0-0.9-1c0-1-0.1-2-0.3-2.9   c-2-10.9-12.1-18.4-23-16.8c-8.4,1.2-14,6-16.9,13.9c-0.4,1.2-0.6,2.4-0.9,3.7c-0.2,0.7,0,1.5-0.1,2.2c-0.1,0.7,0.3,1.1,1,1.1   c1.7,0,3.3,0.2,5-0.1c0.2-0.1,0.3-0.1,0.4-0.2c0,0,0-0.1,0.1-0.1v0c0.2-0.3,0.1-0.7,0.2-1c0.5-5.8,3.4-9.9,8.7-12   c5.5-2.3,10.6-1.2,15,2.7c2.8,2.5,4.3,5.8,4.5,9.6c0,0,0,0,0,0.1c0,0.1,0.1,0.2,0.1,0.3c0.2,0.4,0.4,0.6,0.8,0.7c0,0,0,0,0,0   c0.2,0.1,0.4,0.1,0.7,0.1c1.4,0,2.7-0.2,4.1,0.1c0,0,0,0,0,0.1c0.4,0.6-0.1,1.1-0.4,1.5c-1.2,1.3-3.6,0.9-4.4-0.7   c-0.1-0.2-0.2-0.5-0.3-0.8c0,0-0.1-0.1-0.1-0.1v0c-0.1-0.1-0.1-0.2-0.2-0.2c-0.2-0.1-0.4-0.2-0.6-0.2h0c-0.2,0-0.5,0-0.7,0   c-8.8,0-17.5,0-26.2,0c-0.3,0-0.5,0-0.8,0.1c-0.5,0.1-0.9,0.5-1.2,1c-0.5,1.1-1.4,1.7-2.6,1.7c-1.2,0-2-0.7-2.4-1.8   c-0.2-0.6-0.6-0.9-1.2-0.8c-0.5,0.1-1-0.1-1.4,0.1c-0.7,0.1-1.4,0.2-2,0.4c-11.2,2.4-18.9,11.9-18.9,23.3c0,20.7,0,41.3,0,62   c0,1.5-0.2,1.4,1.5,1.4c20.6,0,41.2,0,61.8,0c1.1,0,2.2,0,3.3-0.1c9.9-1.6,16.5-7.1,19.7-16.6c0.8-2.2,1-4.5,1-6.8   C124.8,267.1,124.9,253.8,124.8,240.5z M104.8,265.8c-0.7,11-8.4,19.8-19.2,21.9c-13.1,2.5-24.8-6.1-27.5-17.9   c-0.3-1.5-0.5-3-0.6-4.5c0-0.9,0-0.9,0.8-0.9c2.9,0,5.8,0,8.7,0h14.1c7.5,0,14.9,0,22.4,0C104.9,264.5,104.9,264.5,104.8,265.8z"></path>
	<path d="M378.8,293.8c0-8.5,0-17,0-25.6c0-1.5,0-3.1-0.3-4.6c-1-6.5-4.5-11-10.7-13.3c-4.6-1.7-9.4-1.8-14.3-0.8   c-3.7,0.8-7.1,2.3-9.9,4.9c-2.9,2.7-4.5,6-4.9,10.1h8.7c0.9,0,1,0,1.2-0.9c0.7-2.7,2.4-4.6,5-5.7c2.8-1.2,5.7-1.4,8.6-0.7   c3.3,0.8,5.5,2.9,6.5,6.2c0.3,1,0.4,2,0.5,3c0.1,1.8,0.1,1.7-1.7,1.8c-4.6,0.1-9.3-0.2-13.9,0.2c-3.1,0.3-6.1,1-8.9,2.4   c-6.1,3.3-7.9,9.2-6.6,14.8c1.2,5,4.5,7.9,9.2,9.5c2.6,0.9,5.3,1,8.1,1c5.8,0,10.1-2.6,13.3-7.3c0.2-0.3,0.4-0.7,0.7-1   c0.2,0.5,0.2,0.9,0.2,1.3c0,1.8,0.1,3.5,0.1,5.2c0,0.5,0.1,0.8,0.7,0.8c2.6,0,5.2,0,7.8,0c0.5,0,0.6-0.2,0.6-0.6   C378.8,294.2,378.8,294,378.8,293.8z M366.6,282.8c-3.6,5.8-9.9,6.4-14.4,4.8c-3.6-1.3-4.9-4.5-4-7.8c0.5-1.9,1.8-3.1,3.6-3.9   c1.4-0.7,2.9-0.9,4.5-1c4.2-0.3,8.5,0,12.9-0.2C368.9,277.7,368.1,280.4,366.6,282.8z"></path>
	<path d="M294.4,265.7c-1.8-7.6-6.3-12.9-13.7-15.6c-3.8-1.4-7.9-1.5-11.9-0.9c-8.1,1.3-13.8,5.8-16.8,13.4   c-2,5.1-2.3,10.5-1.2,15.8c1.6,7.6,5.9,13,13.2,16c4,1.7,8.3,1.9,12.6,1.3c7.6-1,12.9-5.2,16.1-12.1c0.4-0.8,0.7-1.5,0.8-2.5   c-2.9,0-5.7,0-8.5,0c-0.8,0-1.2,0.3-1.6,1c-1.4,2.8-3.6,4.7-6.7,5.5c-4.7,1.2-9,0.4-12.7-2.9c-2.9-2.6-4-6-4.3-9.9h34.9   C295.1,271.7,295.1,268.6,294.4,265.7z M284.8,268.2H261c-1.1,0-1.1,0-0.9-1.1c1.1-5.8,5.8-9.9,11.7-10.2c3.2-0.2,6.2,0.4,8.9,2.3   c2.9,2.1,4.3,5,4.6,8.5C285.4,268.1,285.2,268.2,284.8,268.2z"></path>
	<path d="M425.2,250.2c-6.3,6.8-12.6,13.5-19,20.2c7.3,8.1,14.5,16.3,21.8,24.4c-0.2,0.5-0.5,0.3-0.8,0.3c-3.4,0-6.7,0-10.1,0   c-0.8,0-1.3-0.2-1.9-0.8c-5.8-6.9-11.7-13.8-17.5-20.8c-0.3-0.4-0.6-0.9-1.1-1.2c-0.3,0.3-0.2,0.7-0.2,1c0,6.7,0,13.5,0,20.2   c0,0.2,0,0.5,0,0.7c0.1,0.7-0.2,0.8-0.8,0.8c-2.6,0-5.3,0-7.9,0c-0.8,0-0.8,0-0.9-0.9c0-0.2,0-0.4,0-0.6c0-20.8,0-41.6,0-62.3   c0-1.8-0.2-1.5,1.6-1.5c2.4,0,4.7,0,7.1,0c1,0,1,0,1,1c0,7.1,0,14.1,0,21.2c0,5.3,0,10.6,0,15.8c0,0.2-0.1,0.4,0.1,0.6   c0.4,0,0.5-0.3,0.7-0.6c5.2-5.6,10.4-11.2,15.6-16.9c0.5-0.6,1.1-0.8,1.9-0.8c3,0,6.1,0,9.1,0C424.4,250,424.8,249.9,425.2,250.2z"></path>
	<path d="M176.2,257.5c0.4-0.3,0.5-0.6,0.7-0.9c2.9-4.5,7-7,12.3-7.6c2.8-0.3,5.6-0.2,8.3,0.6c5.6,1.6,9,5.5,10.6,10.9   c0.8,2.7,1.1,5.6,1.1,8.4c0,8.3,0,16.6,0,24.8c0,0.2,0,0.4,0,0.6c0,0.4-0.1,0.6-0.6,0.6c-2.8,0-5.6,0-8.4,0c-0.4,0-0.6-0.1-0.6-0.6   c0-0.3,0-0.6,0-0.9c0-8.1,0-16.2,0-24.2c0-2-0.3-4-1-6c-1.3-3.6-3.8-5.6-7.6-6.1c-3.9-0.5-7.4,0.3-10.4,3.1c-2.2,2-3.2,4.6-3.8,7.5   c-0.2,1.4-0.3,2.7-0.3,4.1c0,7.2,0,14.5,0,21.7c0,0.3,0,0.6,0,0.9c0,0.5-0.2,0.6-0.6,0.6c-0.8,0-1.6,0-2.4,0c-1.8,0-3.7,0-5.5,0   c-1.2,0-1.1,0-1.1-1.1c0-0.1,0-0.2,0-0.2c0-14.1,0-28.3,0-42.4c0-1.5-0.2-1.3,1.4-1.3c2.1,0,4.2,0,6.3,0c0.7,0,0.9,0.2,1,0.9   C175.8,253,176,255.2,176.2,257.5z"></path>
	<path d="M220.9,270.5c0-3.6,0-7.2,0-10.8c0-1.8,0.2-1.5-1.5-1.6c-1.8,0-3.6,0-5.4,0c-0.6,0-0.9-0.2-0.8-0.8c0-2.2,0-4.4,0-6.6   c0-0.6,0.2-0.7,0.8-0.7c1.9,0,3.9,0,5.8,0c1.1,0,1.1,0.1,1.1-1c0-3.1,0-6.2,0-9.3c0-1.2-0.2-1.1,1.1-1.1c2.5,0,5,0,7.6,0   c1.2,0,1.1,0,1.1,1c0,3,0,6.1,0,9.1c0,1.4-0.1,1.3,1.2,1.3c3.5,0,7,0,10.5,0c1,0,1,0,1,1c0,2,0,4.1,0,6.1c0,1,0,1-1,1   c-3.5,0-6.9,0-10.4,0c-0.2,0-0.5,0-0.7,0c-0.4,0-0.6,0.1-0.6,0.6c0,0.2,0,0.4,0,0.6c0,7.1,0,14.1,0,21.2c0,0.9,0.1,1.8,0.3,2.7   c0.4,1.6,1.4,2.7,3,3.2c1,0.3,2,0.5,3.1,0.5c1.7,0,3.4,0,5.1,0c0.6,0,0.8,0.2,0.8,0.8c0,2.2,0,4.5,0,6.7c0,0.6-0.2,0.8-0.8,0.8   c-3.1-0.1-6.3,0.1-9.4-0.2c-2.4-0.2-4.7-0.9-6.7-2.2c-2.7-1.7-3.9-4.2-4.5-7.2c-0.3-1.7-0.5-3.4-0.5-5.1   C220.9,277.1,220.9,273.8,220.9,270.5z"></path>
	<path d="M440,271c0-4,0-8,0-11.9c0-1,0-1-1-1c-1.9,0-3.8,0-5.7,0c-0.9,0-1,0-1-0.9c0-2.1,0-4.2,0-6.3c0-0.9,0-0.9,0.8-0.9   c2,0,4,0,6,0c0.9,0,0.9,0,0.9-0.9c0-3.2,0-6.3,0-9.5c0-1.2,0.1-1,1.1-1c2.6,0,5.2,0,7.8,0c0.7,0,0.8,0.2,0.8,0.8c0,3.2,0,6.4,0,9.6   c0,1,0,1,1,1c3.5,0,7.1,0,10.6,0c1.2,0,1.1-0.1,1.1,1.1c0,1.9,0,3.9,0,5.8c0,1.3,0,1.1-1.1,1.1c-3.5,0-7,0-10.5,0   c-1.2,0-1.1,0-1.1,1.1c0,7.1,0,14.2,0,21.3c0,1.1,0.1,2.1,0.4,3.1c0.4,1.2,1.2,2.1,2.4,2.6c1.1,0.5,2.3,0.7,3.6,0.7   c1.7,0,3.3,0,5,0c0.6,0,0.8,0.2,0.8,0.8c0,2.2,0,4.4,0,6.6c0,0.6-0.2,0.9-0.8,0.8c-3-0.1-6.1,0.1-9.1-0.2c-2.3-0.2-4.5-0.8-6.6-2   c-3.1-1.8-4.4-4.6-5-8c-0.3-1.6-0.4-3.2-0.4-4.8C440,277.1,440,274.1,440,271z"></path>
	<path d="M314.5,258.1c0.9-1.6,1.9-2.9,3.1-4.1c2.9-2.9,6.4-4.5,10.5-4.9c0.8-0.1,1.6-0.1,2.4-0.2c0.5,0,0.6,0.2,0.6,0.6   c0,2.9,0,5.8,0,8.8c0,0.5-0.2,0.7-0.7,0.7c-1.3,0-2.6,0-3.9,0.1c-1.7,0.1-3.3,0.5-4.8,1.1c-3.6,1.4-5.6,4.2-6.6,7.9   c-0.5,1.9-0.6,3.8-0.6,5.7c0,6.6,0,13.2,0,19.8c0,0.2,0,0.5,0,0.7c0.1,0.6-0.1,0.8-0.7,0.8c-2.8,0-5.5,0-8.3,0   c-0.4,0-0.7-0.1-0.7-0.6c0-0.2,0-0.5,0-0.7c0-14.1,0-28.2,0-42.4c0-1.5-0.2-1.3,1.3-1.3c2.1,0,4.1,0,6.2,0c1.2,0,1.2-0.2,1.3,1.3   c0.2,2,0.4,4,0.6,6.1C314.3,257.6,314.3,257.8,314.5,258.1z"></path>
	<path d="M158.9,272.6c0,7,0,14,0,20.9c0,0.2,0,0.5,0,0.7c0.1,0.7-0.2,0.8-0.8,0.8c-2.7,0-5.4,0-8,0c-0.6,0-0.9-0.2-0.8-0.8   c0-0.2,0-0.4,0-0.6c0-14.1,0-28.1,0-42.2c0-1.5-0.2-1.4,1.3-1.4c2.4,0,4.9,0,7.3,0c1.2,0,1.1,0,1.1,1   C158.9,258.2,158.9,265.4,158.9,272.6z"></path>
	<path d="M148.2,238.6c0-3.4,2.3-5.8,5.7-5.8c3.5,0,6,2.4,6,5.8c0,3.3-2.4,5.8-5.7,5.8C150.7,244.4,148.2,242,148.2,238.6z"></path>
	<path class="st18" d="M101.6,216.9c-0.2,0.2-0.3,0.2-0.5,0.3c-0.2,0.1-0.4,0.1-0.6,0.1c-1.5,0-3,0.1-4.5,0c-0.1,0-0.2,0-0.2,0   c-0.3-0.6-0.8-0.4-1.3-0.4c-4.3,0-8.5,0-12.8,0c-4.6,0-9.2,0-13.9,0c-0.7,0-1.1,0.1-1.3,0.9c-0.4,1.4-1.5,2.1-2.9,2.1   c-1.3,0-2.4-0.8-2.9-2c-0.3-0.9-0.3-0.9-1.3-0.9c-0.3,0-0.6,0-1,0c0.4-0.4,0.8-0.2,1.2-0.2c0.5,0,0.7-0.2,0.7-0.7   c0-0.7-0.2-1.5,0.2-2.2c0,0.8,0,1.5-0.1,2.3c0,0.5,0.1,0.8,0.7,0.7c1.8-0.1,3.7,0.1,5.5-0.1c0.1,0,0.1-0.1,0.1-0.1v0   c0.6-0.4,1.3-0.3,2-0.3c8.1,0,16.2,0,24.3,0c0.8,0,1.5,0,2.2-0.5c0.1,0,0.1-0.1,0.2-0.2c0,0.1,0.1,0.2,0.1,0.2   c0.2,0.9,0.2,0.9,1.1,0.9c1.4,0,2.7,0,4.1,0C101.2,216.8,101.4,216.7,101.6,216.9z"></path>
	<path class="st18" d="M95.5,214.1c-2-11-15.1-15.8-23.6-8.5c-3.4,2.9-5.2,6.6-5,11.1h27.5c0.4,0,0.6,0,0.8,0h0   c0.2,0,0.3-0.2,0.4-0.4c0-0.2,0.1-0.3,0.1-0.6C95.7,215.1,95.6,214.6,95.5,214.1z M93.2,216.3c-8.1,0-16.2,0-24.3,0   c-0.7,0-1.4-0.1-2,0.3c0.2-0.3,0.1-0.7,0.2-1c0.5-5.8,3.4-9.9,8.7-12c5.5-2.3,10.6-1.2,15,2.7c2.8,2.5,4.3,5.8,4.5,9.6   C94.8,216.3,94,216.3,93.2,216.3z"></path>
	<path class="st18" d="M95.8,217.2c0.3-0.4,0.7-0.3,1.1-0.3c1.6,0,3.2,0,4.7,0c0.1,2-1.9,3.5-3.8,2.8   C96.6,219.3,95.9,218.5,95.8,217.2z"></path>
</g>
</svg>
